<?xml version="1.0" encoding="utf-8"?>
<!-- Generator: Adobe Illustrator 26.0.1, SVG Export Plug-In . SVG Version: 6.00 Build 0)  -->
<svg version="1.1" xmlns="http://www.w3.org/2000/svg" xmlns:xlink="http://www.w3.org/1999/xlink" x="0px" y="0px"
	 viewBox="0 0 100 100" style="enable-background:new 0 0 100 100;" xml:space="preserve">
<style type="text/css">
	.st0{fill:#F4F0F1;}
	.st1{fill:#FFFFFF;}
	.st2{fill:#3EA3D8;}
	.st3{fill:#CCCCCC;}
	.st4{fill:none;stroke:#CCCCCC;stroke-linecap:square;stroke-miterlimit:10;}
	.st5{fill:none;stroke:#CCCCCC;stroke-miterlimit:10;}
	.st6{fill:none;stroke:#CCCCCC;stroke-miterlimit:10;stroke-dasharray:1.9084,1.9084;}
	.st7{fill:#1A1A1A;}
	.st8{fill:none;stroke:#1A1A1A;stroke-width:3;stroke-miterlimit:10;}
	.st9{fill:none;stroke:#1A1A1A;stroke-miterlimit:10;}
	.st10{fill:none;stroke:#E6E6E6;stroke-miterlimit:10;}
	.st11{fill:#666666;}
	.st12{fill:none;stroke:#B3B3B3;stroke-width:2;stroke-linecap:round;stroke-linejoin:round;stroke-miterlimit:10;}
	.st13{fill:#B3B3B3;}
	.st14{opacity:0.05;}
	.st15{clip-path:url(#SVGID_00000126323571291076155810000009424538536835319964_);}
	.st16{fill:none;stroke:#000000;stroke-width:2;stroke-miterlimit:10;}
	.st17{opacity:0.4;fill:#3EA3D8;}
	.st18{fill:none;stroke:#3EA3D8;stroke-miterlimit:10;}
	.st19{fill:none;stroke:#3EA3D8;stroke-width:11;stroke-linecap:round;stroke-linejoin:round;stroke-miterlimit:10;}
</style>
<g id="A1">
	<g id="NAV_x5F_BAR_00000129914889952932149030000011711506177042644156_">
	</g>
	<g id="HEADER_x5F_BAR_00000015351907221170818370000001589878730520391302_">
	</g>
	<g id="FUNC_x5F_LIST">
	</g>
	<g id="MAIN_x5F_FUNC">
	</g>
	<g id="USER_x5F_CARD">
		<g id="BG" class="st14">
		</g>
	</g>
</g>
<g id="ICON">
	<g>
		<path class="st2" d="M58.58,71.91l25.74-14.13v-6.52L58.58,65.39V71.91z M15.68,57.78l25.74,14.13v-6.52L15.68,51.26V57.78z
			 M15.68,57.78"/>
		<path class="st2" d="M90.04,19.77L55.72,2.5c-3.54-2.04-7.9-2.04-11.44,0L9.96,19.86c-3.53,2.04-5.71,5.8-5.72,9.87v40.76
			c-0.02,4.1,2.17,7.9,5.72,9.95L44.28,97.6c1.77,1.05,3.8,1.61,5.86,1.6c1.95,0.04,3.87-0.44,5.58-1.37l34.32-17.48
			c3.53-2.04,5.71-5.8,5.72-9.87V29.73C95.78,25.62,93.6,21.82,90.04,19.77L90.04,19.77z M12.82,24.86L47.14,7.42
			C48.01,6.91,49,6.65,50,6.64c1.09,0,2.16,0.29,3.09,0.86l34.32,17.16c0.52,0.34,1,0.75,1.4,1.23L50,47.23L11.33,26.01
			c0.36-0.45,0.79-0.84,1.29-1.14H12.82z M12.82,75.43c-1.77-1.02-2.86-2.91-2.86-4.95v-38.7l37.18,20.28v40.62h-0.2L12.82,75.43z
			 M90.04,70.48c0,1.96-1,3.78-2.66,4.83L52.86,92.79V52.06l37.18-20.39V70.48z M90.04,70.48"/>
	</g>
</g>
<g id="DEFAULT_x5F_AVATOR">
</g>
<g id="COLOR">
</g>
<g id="NAV_x5F_BAR">
	<g id="ICON_x5F_SETTING">
	</g>
	<g id="ICON_x5F_INFO">
	</g>
	<g id="ICON_x5F_KCB">
	</g>
</g>
<g id="HEADER_x5F_BAR">
	<g id="BUTTON">
	</g>
	<g id="TOP">
	</g>
</g>
</svg>
