<?xml version="1.0" encoding="utf-8"?>
<!-- Generator: Adobe Illustrator 26.0.1, SVG Export Plug-In . SVG Version: 6.00 Build 0)  -->
<svg version="1.1" xmlns="http://www.w3.org/2000/svg" xmlns:xlink="http://www.w3.org/1999/xlink" x="0px" y="0px"
	 viewBox="0 0 100 100" style="enable-background:new 0 0 100 100;" xml:space="preserve">
<style type="text/css">
	.st0{fill:#F4F0F1;}
	.st1{fill:#FFFFFF;}
	.st2{fill:#3EA3D8;}
	.st3{fill:#CCCCCC;}
	.st4{fill:none;stroke:#CCCCCC;stroke-linecap:square;stroke-miterlimit:10;}
	.st5{fill:none;stroke:#CCCCCC;stroke-miterlimit:10;}
	.st6{fill:none;stroke:#CCCCCC;stroke-miterlimit:10;stroke-dasharray:1.9084,1.9084;}
	.st7{fill:#1A1A1A;}
	.st8{fill:none;stroke:#1A1A1A;stroke-width:3;stroke-miterlimit:10;}
	.st9{fill:none;stroke:#1A1A1A;stroke-miterlimit:10;}
	.st10{fill:none;stroke:#E6E6E6;stroke-miterlimit:10;}
	.st11{fill:#666666;}
	.st12{fill:none;stroke:#B3B3B3;stroke-width:2;stroke-linecap:round;stroke-linejoin:round;stroke-miterlimit:10;}
	.st13{fill:#B3B3B3;}
	.st14{opacity:0.05;}
	.st15{clip-path:url(#SVGID_00000042694534944456839630000009249756808104012177_);}
	.st16{fill:none;stroke:#000000;stroke-width:2;stroke-miterlimit:10;}
	.st17{opacity:0.4;fill:#3EA3D8;}
	.st18{fill:none;stroke:#3EA3D8;stroke-miterlimit:10;}
	.st19{fill:none;stroke:#3EA3D8;stroke-width:11;stroke-linecap:round;stroke-linejoin:round;stroke-miterlimit:10;}
</style>
<g id="A1">
	<g id="NAV_x5F_BAR_00000129914889952932149030000011711506177042644156_">
	</g>
	<g id="HEADER_x5F_BAR_00000015351907221170818370000001589878730520391302_">
	</g>
	<g id="FUNC_x5F_LIST">
	</g>
	<g id="MAIN_x5F_FUNC">
	</g>
	<g id="USER_x5F_CARD">
		<g id="BG" class="st14">
		</g>
	</g>
</g>
<g id="ICON">
	<g>
		<path class="st2" d="M60.93,54.42c7.91-6.23,12.37-15.86,12-25.92c0.05-4.54-0.88-9.04-2.74-13.18c0.01-0.1,0.01-0.2,0-0.3
			c-0.07-0.11-0.15-0.22-0.24-0.32C66.39,6.9,58.57,1.91,49.99,1.96c-13.3,0-22.94,11.18-22.94,26.54
			c-0.37,10.06,4.09,19.69,12,25.92C22.69,57.7,11.66,68.34,11.66,82.14c-0.2,3.81,1.18,7.53,3.8,10.29
			c5.13,5.1,14.54,5.6,26.54,5.6h14.74c13.12,0,22.59,0,27.75-5.01c2.73-2.94,4.11-6.88,3.83-10.88
			C88.33,68.34,77.3,57.7,60.93,54.42L60.93,54.42z M49.99,68.02l-6.66-8.35c4.43-0.55,8.9-0.55,13.33,0L49.99,68.02z M49.99,7.86
			c5.34-0.06,10.34,2.61,13.27,7.08c-18.67,8.23-27.84,5.25-28.93,4.81C36.34,12.75,42.71,7.91,49.99,7.86L49.99,7.86z M32.95,28.5
			c0-1,0-1.98,0.15-2.95c2.46,0.69,5.02,1.02,7.58,0.97c8.73-0.33,17.29-2.47,25.15-6.28c0.83,2.67,1.24,5.46,1.21,8.26
			c0,13-7.64,23.59-17.04,23.59C40.58,52.09,32.95,41.51,32.95,28.5L32.95,28.5z M80.36,88.87c-3.42,3.36-11.8,3.33-23.59,3.27
			H46.54c-12.3,0-22.88,0-26.92-3.89c-1.51-1.66-2.26-3.87-2.06-6.1c0-9.91,7.61-17.69,19.29-21.11l10.85,13.54
			c0,0,0.15,0,0.21,0.18c0.07,0.11,0.16,0.21,0.27,0.3c0.12,0.09,0.25,0.17,0.38,0.24l0.32,0.18c0.35,0.15,0.74,0.23,1.12,0.24
			c0.39,0,0.77-0.09,1.12-0.27l0.32-0.15c0.13-0.07,0.26-0.15,0.38-0.24c0.1-0.08,0.19-0.18,0.27-0.3s0.15,0,0.21-0.18l10.85-13.62
			c11.8,3.33,19.29,11.21,19.29,21.11C82.75,84.52,82,87,80.36,88.87L80.36,88.87z M80.36,88.87"/>
	</g>
</g>
<g id="DEFAULT_x5F_AVATOR">
</g>
<g id="COLOR">
</g>
<g id="NAV_x5F_BAR">
	<g id="ICON_x5F_SETTING">
	</g>
	<g id="ICON_x5F_INFO">
	</g>
	<g id="ICON_x5F_KCB">
	</g>
</g>
<g id="HEADER_x5F_BAR">
	<g id="BUTTON">
	</g>
	<g id="TOP">
	</g>
</g>
</svg>
