<?xml version="1.0" encoding="utf-8"?>
<!-- Generator: Adobe Illustrator 26.0.1, SVG Export Plug-In . SVG Version: 6.00 Build 0)  -->
<svg version="1.1" xmlns="http://www.w3.org/2000/svg" xmlns:xlink="http://www.w3.org/1999/xlink" x="0px" y="0px"
	 viewBox="0 0 100 100" style="enable-background:new 0 0 100 100;" xml:space="preserve">
<style type="text/css">
	.st0{fill:#F4F0F1;}
	.st1{fill:#FFFFFF;}
	.st2{fill:none;stroke:#CCCCCC;stroke-miterlimit:10;}
	.st3{fill:#1A1A1A;}
	.st4{fill:none;stroke:#1A1A1A;stroke-width:3;stroke-miterlimit:10;}
	.st5{fill:none;stroke:#1A1A1A;stroke-miterlimit:10;}
	.st6{fill:#3EA3D8;}
	.st7{display:none;}
	.st8{display:inline;}
	.st9{fill:#808080;}
	.st10{display:inline;fill:#808080;}
	.st11{fill:none;stroke:#808080;stroke-miterlimit:10;}
	.st12{fill:#7AC943;}
	.st13{fill:none;stroke:#E6E6E6;stroke-width:3;stroke-miterlimit:10;}
	.st14{fill:#FFFFFF;stroke:#E6E6E6;stroke-width:3;stroke-miterlimit:10;}
	.st15{fill:none;stroke:#3EA3D8;stroke-miterlimit:10;}
	.st16{fill:#CCCCCC;}
	.st17{fill:none;stroke:#CCCCCC;stroke-linecap:square;stroke-miterlimit:10;}
	.st18{fill:none;stroke:#CCCCCC;stroke-miterlimit:10;stroke-dasharray:1.9084,1.9084;}
	.st19{fill:none;stroke:#E6E6E6;stroke-miterlimit:10;}
	.st20{fill:#666666;}
	.st21{fill:none;stroke:#B3B3B3;stroke-width:2;stroke-linecap:round;stroke-linejoin:round;stroke-miterlimit:10;}
	.st22{fill:#B3B3B3;}
	.st23{opacity:0.05;}
	.st24{clip-path:url(#SVGID_00000091016287826886391250000017486262032961877648_);}
	.st25{fill:none;stroke:#000000;stroke-width:2;stroke-miterlimit:10;}
	.st26{opacity:0.4;fill:#3EA3D8;}
	.st27{fill:none;stroke:#3EA3D8;stroke-width:11;stroke-linecap:round;stroke-linejoin:round;stroke-miterlimit:10;}
</style>
<g id="A3">
	<g id="HEADER_x5F_BAR_00000036974300579741410940000000488572858971942531_">
	</g>
</g>
<g id="A2">
	<g id="HEADER_x5F_BAR_00000019648451390881128220000012673596900810320021_">
	</g>
	<g id="BUTTON_00000117651906535404305420000016044620869483747487_">
	</g>
	<g id="USER_x5F_FORM">
	</g>
	<g id="INTRO">
	</g>
	<g id="DLPU_x5F_LOGO">
	</g>
</g>
<g id="A1">
	<g id="NAV_x5F_BAR_00000129914889952932149030000011711506177042644156_">
	</g>
	<g id="HEADER_x5F_BAR_00000015351907221170818370000001589878730520391302_">
	</g>
	<g id="FUNC_x5F_LIST">
	</g>
	<g id="MAIN_x5F_FUNC">
	</g>
	<g id="USER_x5F_CARD">
		<g id="BG" class="st23">
		</g>
	</g>
</g>
<g id="ICON">
	<g>
		<path class="st6" d="M50,0C22.39,0,0,22.39,0,50c0,27.61,22.39,50,50,50c27.61,0,50-22.39,50-50C100,22.39,77.61,0,50,0L50,0z
			 M50,8.77c22.77,0,41.23,18.46,41.23,41.23S72.77,91.23,50,91.23S8.77,72.77,8.77,50S27.23,8.77,50,8.77L50,8.77z M50,8.77"/>
		<path class="st6" d="M53.59,61.54v-0.98c0-1.69,0.35-3.17,1.05-4.58c0.64-1.27,1.55-2.46,2.82-3.52c3.38-2.95,5.42-4.86,6.05-5.56
			c1.68-2.25,2.6-5.14,2.6-8.66c0-4.3-1.41-7.67-4.22-10.13c-2.81-2.53-6.54-3.73-11.12-3.73c-5.21,0-9.29,1.48-12.32,4.43
			c-3.09,2.96-4.58,7.04-4.58,12.25h8.02c0-2.95,0.56-5.28,1.76-6.89c1.34-1.97,3.52-2.89,6.61-2.89c2.39,0,4.3,0.63,5.63,1.97
			c1.26,1.34,1.97,3.16,1.97,5.49c0,1.76-0.63,3.45-1.9,5l-0.85,0.98c-4.58,4.08-7.32,7.04-8.23,8.94c-0.99,1.9-1.41,4.22-1.41,6.9
			v0.99H53.59z M49.51,75.61c1.54,0,2.81-0.49,3.87-1.48c1.05-0.98,1.61-2.32,1.61-3.87c0-1.55-0.56-2.81-1.54-3.8
			c-1.06-0.98-2.39-1.48-3.94-1.48c-1.55,0-2.82,0.49-3.87,1.47c-1.06,0.99-1.55,2.26-1.55,3.8c0,1.55,0.49,2.81,1.55,3.8
			C46.69,75.05,47.96,75.61,49.51,75.61L49.51,75.61z M49.51,75.61"/>
	</g>
</g>
<g id="DEFAULT_x5F_AVATOR">
</g>
<g id="COLOR">
</g>
<g id="NAV_x5F_BAR">
	<g id="ICON_x5F_SETTING">
	</g>
	<g id="ICON_x5F_INFO">
	</g>
	<g id="ICON_x5F_KCB">
	</g>
</g>
<g id="HEADER_x5F_BAR">
	<g id="BUTTON">
	</g>
	<g id="TOP">
	</g>
</g>
</svg>
