<?xml version="1.0" encoding="utf-8"?>
<!-- Generator: Adobe Illustrator 26.0.1, SVG Export Plug-In . SVG Version: 6.00 Build 0)  -->
<svg version="1.1" xmlns="http://www.w3.org/2000/svg" xmlns:xlink="http://www.w3.org/1999/xlink" x="0px" y="0px"
	 viewBox="0 0 100 100" style="enable-background:new 0 0 100 100;" xml:space="preserve">
<style type="text/css">
	.st0{fill:#F4F0F1;}
	.st1{fill:#FFFFFF;}
	.st2{fill:none;stroke:#CCCCCC;stroke-miterlimit:10;}
	.st3{fill:#1A1A1A;}
	.st4{fill:none;stroke:#1A1A1A;stroke-width:3;stroke-miterlimit:10;}
	.st5{fill:none;stroke:#1A1A1A;stroke-miterlimit:10;}
	.st6{fill:#3EA3D8;}
	.st7{display:none;}
	.st8{display:inline;}
	.st9{fill:#808080;}
	.st10{display:inline;fill:#808080;}
	.st11{fill:none;stroke:#808080;stroke-miterlimit:10;}
	.st12{fill:#7AC943;}
	.st13{fill:none;stroke:#E6E6E6;stroke-width:3;stroke-miterlimit:10;}
	.st14{fill:#FFFFFF;stroke:#E6E6E6;stroke-width:3;stroke-miterlimit:10;}
	.st15{fill:none;stroke:#3EA3D8;stroke-miterlimit:10;}
	.st16{fill:#CCCCCC;}
	.st17{fill:none;stroke:#CCCCCC;stroke-linecap:square;stroke-miterlimit:10;}
	.st18{fill:none;stroke:#CCCCCC;stroke-miterlimit:10;stroke-dasharray:1.9084,1.9084;}
	.st19{fill:none;stroke:#E6E6E6;stroke-miterlimit:10;}
	.st20{fill:#666666;}
	.st21{fill:none;stroke:#B3B3B3;stroke-width:2;stroke-linecap:round;stroke-linejoin:round;stroke-miterlimit:10;}
	.st22{fill:#B3B3B3;}
	.st23{opacity:0.05;}
	.st24{clip-path:url(#SVGID_00000145045565268559361070000017782594028069641132_);}
	.st25{fill:none;stroke:#000000;stroke-width:2;stroke-miterlimit:10;}
	.st26{opacity:0.4;fill:#3EA3D8;}
	.st27{fill:none;stroke:#3EA3D8;stroke-width:11;stroke-linecap:round;stroke-linejoin:round;stroke-miterlimit:10;}
</style>
<g id="A3">
	<g id="HEADER_x5F_BAR_00000036974300579741410940000000488572858971942531_">
	</g>
</g>
<g id="A2">
	<g id="HEADER_x5F_BAR_00000019648451390881128220000012673596900810320021_">
	</g>
	<g id="BUTTON_00000117651906535404305420000016044620869483747487_">
	</g>
	<g id="USER_x5F_FORM">
	</g>
	<g id="INTRO">
	</g>
	<g id="DLPU_x5F_LOGO">
	</g>
</g>
<g id="A1">
	<g id="NAV_x5F_BAR_00000129914889952932149030000011711506177042644156_">
	</g>
	<g id="HEADER_x5F_BAR_00000015351907221170818370000001589878730520391302_">
	</g>
	<g id="FUNC_x5F_LIST">
	</g>
	<g id="MAIN_x5F_FUNC">
	</g>
	<g id="USER_x5F_CARD">
		<g id="BG" class="st23">
		</g>
	</g>
</g>
<g id="ICON">
	<g>
		<path class="st6" d="M80.89,59.07c7.16-4.63,11.49-13.25,9.73-22.74c-1.52-8.17-7.87-14.98-15.9-17.09
			c-5.26-1.38-10.26-0.79-14.57,1.09c0.9,1.91,1.62,3.92,2.02,6.05c2.06-0.99,4.34-1.6,6.79-1.6c10,0,17.85,9.35,15.27,19.76
			c-0.99,4.01-3.81,7.32-7.28,9.55l1.19-0.77c-0.86,0.56-1.6,1.32-2.12,2.28c-0.52,0.96-0.77,2-0.77,3.01v0.75
			c0,1.15,0.31,2.32,0.97,3.36c0.66,1.05,1.57,1.83,2.61,2.32l-0.67-0.32c8.3,3.97,14.1,12.67,15.6,23.09H68.95
			c0.26,2.06,0.42,4.16,0.42,6.31h24.27c3.79,0,6.85-3.35,6.28-7.1C97.98,74.34,90.85,63.82,80.89,59.07L80.89,59.07z M80.89,59.07"
			/>
		<path class="st6" d="M6.35,94.15h68.9c0-19.11-10.42-35.32-24.98-41.47c9.04-5.4,14.5-16.17,11.56-28.01
			c-2.2-8.87-9.45-16.03-18.36-18.1c-16.57-3.86-31.29,8.6-31.29,24.52c0,9.21,4.99,17.19,12.37,21.59
			C11.83,58.05,2.27,71.13,0.06,87.11C-0.46,90.84,2.58,94.15,6.35,94.15L6.35,94.15z M27.01,58.49l0.25-0.1
			c1.11-0.47,2.09-1.25,2.8-2.32c0.71-1.07,1.05-2.29,1.05-3.48v0.26c0-1.06-0.27-2.13-0.83-3.11c-0.56-0.98-1.34-1.76-2.25-2.3
			l-0.25-0.14c-5.82-3.47-9.29-9.52-9.29-16.17c0-10.44,8.48-18.92,18.92-18.92s18.92,8.48,18.92,18.92c0,6.65-3.47,12.7-9.29,16.17
			l-0.25,0.14c-0.9,0.55-1.7,1.32-2.25,2.3c-0.56,0.98-0.83,2.05-0.83,3.11v-0.27c0,1.19,0.33,2.41,1.05,3.48
			c0.71,1.07,1.7,1.85,2.8,2.32l0.25,0.1C58.76,63.1,66.6,74.47,68.49,87.83H6.33C8.23,74.48,16.06,63.11,27.01,58.49L27.01,58.49z
			 M27.01,58.49"/>
	</g>
</g>
<g id="DEFAULT_x5F_AVATOR">
</g>
<g id="COLOR">
</g>
<g id="NAV_x5F_BAR">
	<g id="ICON_x5F_SETTING">
	</g>
	<g id="ICON_x5F_INFO">
	</g>
	<g id="ICON_x5F_KCB">
	</g>
</g>
<g id="HEADER_x5F_BAR">
	<g id="BUTTON">
	</g>
	<g id="TOP">
	</g>
</g>
</svg>
