<?xml version="1.0" encoding="utf-8"?>
<!-- Generator: Adobe Illustrator 26.0.1, SVG Export Plug-In . SVG Version: 6.00 Build 0)  -->
<svg version="1.1" xmlns="http://www.w3.org/2000/svg" xmlns:xlink="http://www.w3.org/1999/xlink" x="0px" y="0px"
	 viewBox="0 0 100 100" style="enable-background:new 0 0 100 100;" xml:space="preserve">
<style type="text/css">
	.st0{fill:#F4F0F1;}
	.st1{fill:#FFFFFF;}
	.st2{fill:#3EA3D8;}
	.st3{fill:#CCCCCC;}
	.st4{fill:none;stroke:#CCCCCC;stroke-linecap:square;stroke-miterlimit:10;}
	.st5{fill:none;stroke:#CCCCCC;stroke-miterlimit:10;}
	.st6{fill:none;stroke:#CCCCCC;stroke-miterlimit:10;stroke-dasharray:1.9084,1.9084;}
	.st7{fill:#1A1A1A;}
	.st8{fill:none;stroke:#1A1A1A;stroke-width:3;stroke-miterlimit:10;}
	.st9{fill:none;stroke:#1A1A1A;stroke-miterlimit:10;}
	.st10{fill:none;stroke:#E6E6E6;stroke-miterlimit:10;}
	.st11{fill:#666666;}
	.st12{fill:none;stroke:#B3B3B3;stroke-width:2;stroke-linecap:round;stroke-linejoin:round;stroke-miterlimit:10;}
	.st13{fill:#B3B3B3;}
	.st14{opacity:0.05;}
	.st15{clip-path:url(#SVGID_00000076592718380360388780000014023029871415092396_);}
	.st16{fill:none;stroke:#000000;stroke-width:2;stroke-miterlimit:10;}
	.st17{opacity:0.4;fill:#3EA3D8;}
	.st18{fill:none;stroke:#3EA3D8;stroke-miterlimit:10;}
	.st19{fill:none;stroke:#3EA3D8;stroke-width:11;stroke-linecap:round;stroke-linejoin:round;stroke-miterlimit:10;}
</style>
<g id="A1">
	<g id="NAV_x5F_BAR_00000129914889952932149030000011711506177042644156_">
	</g>
	<g id="HEADER_x5F_BAR_00000015351907221170818370000001589878730520391302_">
	</g>
	<g id="FUNC_x5F_LIST">
	</g>
	<g id="MAIN_x5F_FUNC">
	</g>
	<g id="USER_x5F_CARD">
		<g id="BG" class="st14">
		</g>
	</g>
</g>
<g id="ICON">
	<g>
		<path class="st2" d="M50,9.8c0.55,0,0.75,0.35,0.82,0.49l9.71,17.69c2.16,3.93,5.93,6.67,10.34,7.51l19.83,3.77
			c0.15,0.02,0.55,0.11,0.71,0.63c0.18,0.53-0.11,0.82-0.21,0.94L77.37,55.51c-3.08,3.26-4.52,7.7-3.95,12.16l2.55,20.02
			c0.02,0.21,0.02,0.46-0.2,0.71c-0.19,0.22-0.47,0.35-0.73,0.35c-0.13,0-0.26-0.03-0.41-0.11l-18.25-8.61
			c-1.99-0.94-4.2-1.43-6.39-1.43c-2.2,0-4.4,0.49-6.39,1.43l-18.25,8.61c-0.15,0.07-0.28,0.11-0.41,0.11
			c-0.26,0-0.53-0.14-0.73-0.35c-0.22-0.26-0.23-0.5-0.2-0.71l2.55-20.02c0.56-4.46-0.88-8.88-3.95-12.16L8.79,40.82
			c-0.11-0.11-0.37-0.4-0.21-0.94c0.18-0.53,0.56-0.6,0.71-0.63l19.83-3.77c4.41-0.84,8.18-3.58,10.34-7.51l9.71-17.69
			C49.25,10.15,49.45,9.8,50,9.8 M50,2.78c-2.74,0-5.47,1.38-6.97,4.13L33.31,24.6c-1.15,2.08-3.16,3.55-5.49,3.99L7.99,32.36
			c-6.17,1.17-8.61,8.69-4.31,13.27l13.83,14.7c1.63,1.73,2.4,4.1,2.09,6.46L17.06,86.8c-0.63,5,3.36,8.97,7.89,8.97
			c1.12,0,2.27-0.25,3.41-0.77l18.25-8.61c1.08-0.5,2.24-0.76,3.39-0.76c1.16,0,2.32,0.26,3.39,0.76l18.25,8.61
			c1.12,0.53,2.28,0.77,3.4,0.77c4.53,0,8.52-3.98,7.89-8.97l-2.55-20.02c-0.3-2.35,0.47-4.73,2.09-6.46l13.83-14.7
			c4.31-4.58,1.86-12.1-4.31-13.27l-19.83-3.77c-2.34-0.44-4.35-1.91-5.49-3.99L56.97,6.91C55.46,4.15,52.74,2.78,50,2.78L50,2.78z
			 M50,2.78"/>
	</g>
</g>
<g id="DEFAULT_x5F_AVATOR">
</g>
<g id="COLOR">
</g>
<g id="NAV_x5F_BAR">
	<g id="ICON_x5F_SETTING">
	</g>
	<g id="ICON_x5F_INFO">
	</g>
	<g id="ICON_x5F_KCB">
	</g>
</g>
<g id="HEADER_x5F_BAR">
	<g id="BUTTON">
	</g>
	<g id="TOP">
	</g>
</g>
</svg>
