<?xml version="1.0" encoding="utf-8"?>
<!-- Generator: Adobe Illustrator 26.0.1, SVG Export Plug-In . SVG Version: 6.00 Build 0)  -->
<svg version="1.1" xmlns="http://www.w3.org/2000/svg" xmlns:xlink="http://www.w3.org/1999/xlink" x="0px" y="0px"
	 viewBox="0 0 100 100" style="enable-background:new 0 0 100 100;" xml:space="preserve">
<style type="text/css">
	.st0{fill:#F4F0F1;}
	.st1{fill:#FFFFFF;}
	.st2{fill:none;stroke:#CCCCCC;stroke-miterlimit:10;}
	.st3{fill:#1A1A1A;}
	.st4{fill:none;stroke:#1A1A1A;stroke-width:3;stroke-miterlimit:10;}
	.st5{fill:none;stroke:#1A1A1A;stroke-miterlimit:10;}
	.st6{fill:#3EA3D8;}
	.st7{display:none;}
	.st8{display:inline;}
	.st9{fill:#808080;}
	.st10{display:inline;fill:#808080;}
	.st11{fill:none;stroke:#808080;stroke-miterlimit:10;}
	.st12{fill:#7AC943;}
	.st13{fill:none;stroke:#E6E6E6;stroke-width:3;stroke-miterlimit:10;}
	.st14{fill:#FFFFFF;stroke:#E6E6E6;stroke-width:3;stroke-miterlimit:10;}
	.st15{fill:none;stroke:#3EA3D8;stroke-miterlimit:10;}
	.st16{fill:#CCCCCC;}
	.st17{fill:none;stroke:#CCCCCC;stroke-linecap:square;stroke-miterlimit:10;}
	.st18{fill:none;stroke:#CCCCCC;stroke-miterlimit:10;stroke-dasharray:1.9084,1.9084;}
	.st19{fill:none;stroke:#E6E6E6;stroke-miterlimit:10;}
	.st20{fill:#666666;}
	.st21{fill:none;stroke:#B3B3B3;stroke-width:2;stroke-linecap:round;stroke-linejoin:round;stroke-miterlimit:10;}
	.st22{fill:#B3B3B3;}
	.st23{opacity:0.05;}
	.st24{clip-path:url(#SVGID_00000177474060957557094400000000012443665588057228_);}
	.st25{fill:none;stroke:#000000;stroke-width:2;stroke-miterlimit:10;}
	.st26{opacity:0.4;fill:#3EA3D8;}
	.st27{fill:none;stroke:#3EA3D8;stroke-width:11;stroke-linecap:round;stroke-linejoin:round;stroke-miterlimit:10;}
</style>
<g id="A3">
	<g id="HEADER_x5F_BAR_00000036974300579741410940000000488572858971942531_">
	</g>
</g>
<g id="A2">
	<g id="HEADER_x5F_BAR_00000019648451390881128220000012673596900810320021_">
	</g>
	<g id="BUTTON_00000117651906535404305420000016044620869483747487_">
	</g>
	<g id="USER_x5F_FORM">
	</g>
	<g id="INTRO">
	</g>
	<g id="DLPU_x5F_LOGO">
	</g>
</g>
<g id="A1">
	<g id="NAV_x5F_BAR_00000129914889952932149030000011711506177042644156_">
	</g>
	<g id="HEADER_x5F_BAR_00000015351907221170818370000001589878730520391302_">
	</g>
	<g id="FUNC_x5F_LIST">
	</g>
	<g id="MAIN_x5F_FUNC">
	</g>
	<g id="USER_x5F_CARD">
		<g id="BG" class="st23">
		</g>
	</g>
</g>
<g id="ICON">
	<g>
		<path class="st6" d="M50,0C22.39,0,0,22.39,0,50c0,27.61,22.39,50,50,50c27.61,0,50-22.39,50-50C100,22.39,77.61,0,50,0L50,0z
			 M50,8.77c22.77,0,41.23,18.46,41.23,41.23S72.77,91.23,50,91.23S8.77,72.77,8.77,50S27.23,8.77,50,8.77L50,8.77z M50,8.77"/>
		<path class="st6" d="M50,43.19c3.04,0,4.56,1.52,4.56,4.56v23.72c0,3.04-1.52,4.56-4.56,4.56c-3.04,0-4.56-1.52-4.56-4.56V47.75
			C45.44,44.71,46.96,43.19,50,43.19L50,43.19z M50,43.19"/>
		<path class="st6" d="M43.33,30.64c0,2.38,1.27,4.58,3.33,5.77c2.06,1.19,4.6,1.19,6.67,0c2.06-1.19,3.33-3.39,3.33-5.77
			c0-2.38-1.27-4.58-3.33-5.77c-2.06-1.19-4.6-1.19-6.67,0C44.6,26.05,43.33,28.25,43.33,30.64L43.33,30.64z M43.33,30.64"/>
	</g>
</g>
<g id="DEFAULT_x5F_AVATOR">
</g>
<g id="COLOR">
</g>
<g id="NAV_x5F_BAR">
	<g id="ICON_x5F_SETTING">
	</g>
	<g id="ICON_x5F_INFO">
	</g>
	<g id="ICON_x5F_KCB">
	</g>
</g>
<g id="HEADER_x5F_BAR">
	<g id="BUTTON">
	</g>
	<g id="TOP">
	</g>
</g>
</svg>
