<?xml version="1.0" encoding="utf-8"?>
<!-- Generator: Adobe Illustrator 26.0.1, SVG Export Plug-In . SVG Version: 6.00 Build 0)  -->
<svg version="1.1" xmlns="http://www.w3.org/2000/svg" xmlns:xlink="http://www.w3.org/1999/xlink" x="0px" y="0px"
	 viewBox="0 0 100 100" style="enable-background:new 0 0 100 100;" xml:space="preserve">
<style type="text/css">
	.st0{fill:#F4F0F1;}
	.st1{fill:#FFFFFF;}
	.st2{fill:#3EA3D8;}
	.st3{fill:#CCCCCC;}
	.st4{fill:none;stroke:#CCCCCC;stroke-linecap:square;stroke-miterlimit:10;}
	.st5{fill:none;stroke:#CCCCCC;stroke-miterlimit:10;}
	.st6{fill:none;stroke:#CCCCCC;stroke-miterlimit:10;stroke-dasharray:1.9084,1.9084;}
	.st7{fill:#1A1A1A;}
	.st8{fill:none;stroke:#1A1A1A;stroke-width:3;stroke-miterlimit:10;}
	.st9{fill:none;stroke:#1A1A1A;stroke-miterlimit:10;}
	.st10{fill:none;stroke:#E6E6E6;stroke-miterlimit:10;}
	.st11{fill:#666666;}
	.st12{fill:none;stroke:#B3B3B3;stroke-width:2;stroke-linecap:round;stroke-linejoin:round;stroke-miterlimit:10;}
	.st13{fill:#B3B3B3;}
	.st14{opacity:0.05;}
	.st15{clip-path:url(#SVGID_00000089549096524624138190000001993487473804585391_);}
	.st16{fill:none;stroke:#000000;stroke-width:2;stroke-miterlimit:10;}
	.st17{opacity:0.4;fill:#3EA3D8;}
	.st18{fill:none;stroke:#3EA3D8;stroke-miterlimit:10;}
	.st19{fill:none;stroke:#3EA3D8;stroke-width:11;stroke-linecap:round;stroke-linejoin:round;stroke-miterlimit:10;}
</style>
<g id="A1">
	<g id="NAV_x5F_BAR_00000129914889952932149030000011711506177042644156_">
	</g>
	<g id="HEADER_x5F_BAR_00000015351907221170818370000001589878730520391302_">
	</g>
	<g id="FUNC_x5F_LIST">
	</g>
	<g id="MAIN_x5F_FUNC">
	</g>
	<g id="USER_x5F_CARD">
		<g id="BG" class="st14">
		</g>
	</g>
</g>
<g id="ICON">
	<g>
		<path class="st2" d="M51.82,18.46c0.22,0,0.53,0.12,0.81,0.44c0,0.02,0.01,0.05,0.01,0.06v62.07c0,0.18-0.27,0.47-0.67,0.47
			c-0.14,0-0.23-0.01-0.26-0.02l-0.09-0.05l-0.12-0.06l-14.95-8.83c-3.32-1.98-6.95-2.98-10.78-2.98h-9.97
			c-4.1,0-7.44-3.17-7.44-7.05V38.05c0-3.22,2.85-5.84,6.37-5.84h8.61c3.81,0,7.54-1.04,10.79-3.03h0.02l15.71-9.65h0.01l1.56-0.96
			C51.57,18.51,51.69,18.46,51.82,18.46 M51.82,12c-1.28,0-2.57,0.34-3.77,1.08h-0.01L30.75,23.65c-2.24,1.37-4.8,2.08-7.43,2.08
			h-8.59c-7.13,0-12.83,5.55-12.83,12.3v24.45C1.9,69.93,8.14,76,15.81,76h9.97c2.67,0,5.16,0.69,7.49,2.08l14.96,8.84
			c1.08,0.7,2.32,1.04,3.74,1.04c3.92,0,7.13-3.12,7.13-6.94V18.97c0-1.21-0.36-2.61-1.08-3.64C56.52,13.2,54.19,12,51.82,12
			L51.82,12z M94.55,46.53H73.17c-1.94-0.02-3.53,1.53-3.56,3.47c0,1.91,1.61,3.47,3.56,3.47h21.38c1.96,0,3.57-1.56,3.57-3.47
			C98.08,48.06,96.49,46.51,94.55,46.53L94.55,46.53z M93.13,76.01L74.59,65.61c-1.66-0.99-3.81-0.45-4.81,1.21
			c-0.48,0.78-0.64,1.72-0.4,2.61c0.24,0.88,0.83,1.64,1.64,2.07l18.54,10.4c1.66,0.99,3.81,0.45,4.81-1.21
			C95.44,79.13,94.9,77.05,93.13,76.01L93.13,76.01z M74.42,34.4L92.94,24c1.79-1.03,2.32-3.11,1.25-4.69
			c-1.07-1.73-3.2-2.25-4.81-1.21l-18.54,10.4c-1.78,1.04-2.32,3.12-1.25,4.69C70.68,34.75,72.81,35.44,74.42,34.4L74.42,34.4z
			 M74.42,34.4"/>
	</g>
</g>
<g id="DEFAULT_x5F_AVATOR">
</g>
<g id="COLOR">
</g>
<g id="NAV_x5F_BAR">
	<g id="ICON_x5F_SETTING">
	</g>
	<g id="ICON_x5F_INFO">
	</g>
	<g id="ICON_x5F_KCB">
	</g>
</g>
<g id="HEADER_x5F_BAR">
	<g id="BUTTON">
	</g>
	<g id="TOP">
	</g>
</g>
</svg>
