<?xml version="1.0" encoding="utf-8"?>
<!-- Generator: Adobe Illustrator 26.0.1, SVG Export Plug-In . SVG Version: 6.00 Build 0)  -->
<svg version="1.1" xmlns="http://www.w3.org/2000/svg" xmlns:xlink="http://www.w3.org/1999/xlink" x="0px" y="0px"
	 viewBox="0 0 100 100" style="enable-background:new 0 0 100 100;" xml:space="preserve">
<style type="text/css">
	.st0{fill:#F4F0F1;}
	.st1{fill:#FFFFFF;}
	.st2{fill:none;stroke:#CCCCCC;stroke-miterlimit:10;}
	.st3{fill:#1A1A1A;}
	.st4{fill:none;stroke:#1A1A1A;stroke-width:3;stroke-miterlimit:10;}
	.st5{fill:none;stroke:#1A1A1A;stroke-miterlimit:10;}
	.st6{fill:#3EA3D8;}
	.st7{display:none;}
	.st8{display:inline;}
	.st9{fill:#808080;}
	.st10{display:inline;fill:#808080;}
	.st11{fill:none;stroke:#808080;stroke-miterlimit:10;}
	.st12{fill:#7AC943;}
	.st13{fill:none;stroke:#E6E6E6;stroke-width:3;stroke-miterlimit:10;}
	.st14{fill:#FFFFFF;stroke:#E6E6E6;stroke-width:3;stroke-miterlimit:10;}
	.st15{fill:none;stroke:#3EA3D8;stroke-miterlimit:10;}
	.st16{fill:#CCCCCC;}
	.st17{fill:none;stroke:#CCCCCC;stroke-linecap:square;stroke-miterlimit:10;}
	.st18{fill:none;stroke:#CCCCCC;stroke-miterlimit:10;stroke-dasharray:1.9084,1.9084;}
	.st19{fill:none;stroke:#E6E6E6;stroke-miterlimit:10;}
	.st20{fill:#666666;}
	.st21{fill:none;stroke:#B3B3B3;stroke-width:2;stroke-linecap:round;stroke-linejoin:round;stroke-miterlimit:10;}
	.st22{fill:#B3B3B3;}
	.st23{opacity:0.05;}
	.st24{clip-path:url(#SVGID_00000047771584930258237770000008464236368807665038_);}
	.st25{fill:none;stroke:#000000;stroke-width:2;stroke-miterlimit:10;}
	.st26{opacity:0.4;fill:#3EA3D8;}
	.st27{fill:none;stroke:#3EA3D8;stroke-width:11;stroke-linecap:round;stroke-linejoin:round;stroke-miterlimit:10;}
</style>
<g id="A3">
	<g id="HEADER_x5F_BAR_00000036974300579741410940000000488572858971942531_">
	</g>
</g>
<g id="A2">
	<g id="HEADER_x5F_BAR_00000019648451390881128220000012673596900810320021_">
	</g>
	<g id="BUTTON_00000117651906535404305420000016044620869483747487_">
	</g>
	<g id="USER_x5F_FORM">
	</g>
	<g id="INTRO">
	</g>
	<g id="DLPU_x5F_LOGO">
	</g>
</g>
<g id="A1">
	<g id="NAV_x5F_BAR_00000129914889952932149030000011711506177042644156_">
	</g>
	<g id="HEADER_x5F_BAR_00000015351907221170818370000001589878730520391302_">
	</g>
	<g id="FUNC_x5F_LIST">
	</g>
	<g id="MAIN_x5F_FUNC">
	</g>
	<g id="USER_x5F_CARD">
		<g id="BG" class="st23">
		</g>
	</g>
</g>
<g id="ICON">
	<g>
		<path class="st6" d="M50,0c8.69,0,17.06,2.22,24.48,6.39c2.24,1.26,3.03,4.1,1.78,6.34c-1.26,2.24-4.1,3.03-6.34,1.78
			C63.84,11.08,56.98,9.29,50,9.3C27.53,9.3,9.3,27.52,9.3,50S27.53,90.7,50,90.7c22.48,0,40.7-18.22,40.7-40.7
			c0-7.9-2.25-15.46-6.42-21.96c-1.39-2.16-0.76-5.04,1.4-6.43c2.16-1.39,5.04-0.76,6.43,1.4c5.17,8.05,7.91,17.42,7.9,26.99
			c0,27.61-22.38,50-50,50C22.39,100,0,77.61,0,50C0,22.39,22.39,0,50,0L50,0z M50,0"/>
		<path class="st6" d="M83.48,20.51c1.7-1.82,4.53-1.97,6.42-0.36c1.89,1.61,2.18,4.43,0.65,6.39l-0.33,0.38L51.09,67.99
			c-1.67,1.75-4.4,1.93-6.29,0.41l-0.39-0.35L26.66,50.11c-1.75-1.75-1.82-4.58-0.16-6.41c1.67-1.84,4.48-2.04,6.4-0.47l0.37,0.34
			L47.65,58.1L83.48,20.51z M83.48,20.51"/>
	</g>
</g>
<g id="DEFAULT_x5F_AVATOR">
</g>
<g id="COLOR">
</g>
<g id="NAV_x5F_BAR">
	<g id="ICON_x5F_SETTING">
	</g>
	<g id="ICON_x5F_INFO">
	</g>
	<g id="ICON_x5F_KCB">
	</g>
</g>
<g id="HEADER_x5F_BAR">
	<g id="BUTTON">
	</g>
	<g id="TOP">
	</g>
</g>
</svg>
