<?xml version="1.0" encoding="utf-8"?>
<!-- Generator: Adobe Illustrator 26.0.1, SVG Export Plug-In . SVG Version: 6.00 Build 0)  -->
<svg version="1.1" xmlns="http://www.w3.org/2000/svg" xmlns:xlink="http://www.w3.org/1999/xlink" x="0px" y="0px"
	 viewBox="0 0 100 100" style="enable-background:new 0 0 100 100;" xml:space="preserve">
<style type="text/css">
	.st0{fill:#F4F0F1;}
	.st1{fill:#FFFFFF;}
	.st2{fill:none;stroke:#CCCCCC;stroke-miterlimit:10;}
	.st3{fill:#1A1A1A;}
	.st4{fill:none;stroke:#1A1A1A;stroke-width:3;stroke-miterlimit:10;}
	.st5{fill:none;stroke:#1A1A1A;stroke-miterlimit:10;}
	.st6{fill:#3EA3D8;}
	.st7{display:none;}
	.st8{display:inline;}
	.st9{fill:#808080;}
	.st10{display:inline;fill:#808080;}
	.st11{fill:none;stroke:#808080;stroke-miterlimit:10;}
	.st12{fill:#7AC943;}
	.st13{fill:none;stroke:#E6E6E6;stroke-width:3;stroke-miterlimit:10;}
	.st14{fill:#FFFFFF;stroke:#E6E6E6;stroke-width:3;stroke-miterlimit:10;}
	.st15{fill:none;stroke:#3EA3D8;stroke-miterlimit:10;}
	.st16{fill:#CCCCCC;}
	.st17{fill:none;stroke:#CCCCCC;stroke-linecap:square;stroke-miterlimit:10;}
	.st18{fill:none;stroke:#CCCCCC;stroke-miterlimit:10;stroke-dasharray:1.9084,1.9084;}
	.st19{fill:none;stroke:#E6E6E6;stroke-miterlimit:10;}
	.st20{fill:#666666;}
	.st21{fill:none;stroke:#B3B3B3;stroke-width:2;stroke-linecap:round;stroke-linejoin:round;stroke-miterlimit:10;}
	.st22{fill:#B3B3B3;}
	.st23{opacity:0.05;}
	.st24{clip-path:url(#SVGID_00000124849447952852579110000006476751934385998486_);}
	.st25{fill:none;stroke:#000000;stroke-width:2;stroke-miterlimit:10;}
	.st26{opacity:0.4;fill:#3EA3D8;}
	.st27{fill:none;stroke:#3EA3D8;stroke-width:11;stroke-linecap:round;stroke-linejoin:round;stroke-miterlimit:10;}
</style>
<g id="A3">
	<g id="HEADER_x5F_BAR_00000036974300579741410940000000488572858971942531_">
	</g>
</g>
<g id="A2">
	<g id="HEADER_x5F_BAR_00000019648451390881128220000012673596900810320021_">
	</g>
	<g id="BUTTON_00000117651906535404305420000016044620869483747487_">
	</g>
	<g id="USER_x5F_FORM">
	</g>
	<g id="INTRO">
	</g>
	<g id="DLPU_x5F_LOGO">
	</g>
</g>
<g id="A1">
	<g id="NAV_x5F_BAR_00000129914889952932149030000011711506177042644156_">
	</g>
	<g id="HEADER_x5F_BAR_00000015351907221170818370000001589878730520391302_">
	</g>
	<g id="FUNC_x5F_LIST">
	</g>
	<g id="MAIN_x5F_FUNC">
	</g>
	<g id="USER_x5F_CARD">
		<g id="BG" class="st23">
		</g>
	</g>
</g>
<g id="ICON">
	<g>
		<path class="st6" d="M50,66.23c-8.59,0-15.51-6.92-15.51-15.51S41.4,35.2,50,35.2s15.51,6.92,15.51,15.51S58.59,66.23,50,66.23z
			 M50,42.36c-4.53,0-8.35,3.82-8.35,8.35s3.82,8.35,8.35,8.35s8.35-3.82,8.35-8.35S54.53,42.36,50,42.36z"/>
		<path class="st6" d="M50,86.99c-31.5,0-48.93-33.89-49.64-35.32c-0.48-0.95-0.48-2.15,0-3.34C1.07,46.9,18.73,13.01,50,13.01
			c31.5,0,48.93,34.13,49.64,35.56c0.48,0.95,0.48,2.15,0,3.34C98.92,53.1,81.5,86.99,50,86.99z M7.51,50
			C11.33,56.44,26.61,79.83,50,79.83S88.66,56.44,92.48,50C88.66,43.56,73.39,20.17,50,20.17S11.33,43.56,7.51,50z"/>
	</g>
</g>
<g id="DEFAULT_x5F_AVATOR">
</g>
<g id="COLOR">
</g>
<g id="NAV_x5F_BAR">
	<g id="ICON_x5F_SETTING">
	</g>
	<g id="ICON_x5F_INFO">
	</g>
	<g id="ICON_x5F_KCB">
	</g>
</g>
<g id="HEADER_x5F_BAR">
	<g id="BUTTON">
	</g>
	<g id="TOP">
	</g>
</g>
</svg>
