<?xml version="1.0" encoding="utf-8"?>
<!-- Generator: Adobe Illustrator 26.0.1, SVG Export Plug-In . SVG Version: 6.00 Build 0)  -->
<svg version="1.1" xmlns="http://www.w3.org/2000/svg" xmlns:xlink="http://www.w3.org/1999/xlink" x="0px" y="0px"
	 viewBox="0 0 100 100" style="enable-background:new 0 0 100 100;" xml:space="preserve">
<style type="text/css">
	.st0{fill:#F4F0F1;}
	.st1{fill:#FFFFFF;}
	.st2{fill:#3EA3D8;}
	.st3{fill:#CCCCCC;}
	.st4{fill:none;stroke:#CCCCCC;stroke-linecap:square;stroke-miterlimit:10;}
	.st5{fill:none;stroke:#CCCCCC;stroke-miterlimit:10;}
	.st6{fill:none;stroke:#CCCCCC;stroke-miterlimit:10;stroke-dasharray:1.9084,1.9084;}
	.st7{fill:#1A1A1A;}
	.st8{fill:none;stroke:#1A1A1A;stroke-width:3;stroke-miterlimit:10;}
	.st9{fill:none;stroke:#1A1A1A;stroke-miterlimit:10;}
	.st10{fill:none;stroke:#E6E6E6;stroke-miterlimit:10;}
	.st11{fill:#666666;}
	.st12{fill:none;stroke:#B3B3B3;stroke-width:2;stroke-linecap:round;stroke-linejoin:round;stroke-miterlimit:10;}
	.st13{fill:#B3B3B3;}
	.st14{opacity:0.05;}
	.st15{clip-path:url(#SVGID_00000134231879972232262860000003624220645597976985_);}
	.st16{fill:none;stroke:#000000;stroke-width:2;stroke-miterlimit:10;}
	.st17{opacity:0.4;fill:#3EA3D8;}
	.st18{fill:none;stroke:#3EA3D8;stroke-miterlimit:10;}
	.st19{fill:none;stroke:#3EA3D8;stroke-width:11;stroke-linecap:round;stroke-linejoin:round;stroke-miterlimit:10;}
</style>
<g id="A1">
	<g id="NAV_x5F_BAR_00000129914889952932149030000011711506177042644156_">
	</g>
	<g id="HEADER_x5F_BAR_00000015351907221170818370000001589878730520391302_">
	</g>
	<g id="FUNC_x5F_LIST">
	</g>
	<g id="MAIN_x5F_FUNC">
	</g>
	<g id="USER_x5F_CARD">
		<g id="BG" class="st14">
		</g>
	</g>
</g>
<g id="ICON">
	<g>
		<path class="st2" d="M85.76,9.77h-14.9V6.79c0-1.65-1.33-2.98-2.98-2.98c-1.65,0-2.98,1.33-2.98,2.98v2.98H35.1V6.79
			c0-1.65-1.33-2.98-2.98-2.98c-1.65,0-2.98,1.33-2.98,2.98v2.98h-14.9c-3.16,0-6.19,1.26-8.43,3.49c-2.24,2.24-3.49,5.27-3.49,8.43
			v62.58c0,3.16,1.26,6.19,3.49,8.43c2.24,2.24,5.27,3.49,8.43,3.49h71.52c3.16,0,6.19-1.26,8.43-3.49
			c2.24-2.24,3.49-5.27,3.49-8.43V21.69c0-3.16-1.26-6.19-3.49-8.43C91.96,11.02,88.92,9.77,85.76,9.77L85.76,9.77z M8.28,21.69
			c0-1.58,0.63-3.1,1.75-4.21c1.12-1.12,2.63-1.75,4.21-1.75h14.9v2.98c0,1.65,1.33,2.98,2.98,2.98c1.65,0,2.98-1.33,2.98-2.98
			v-2.98h29.8v2.98c0,1.65,1.33,2.98,2.98,2.98c1.65,0,2.98-1.33,2.98-2.98v-2.98h14.9c3.29,0,5.96,2.67,5.96,5.96v8.94H8.28V21.69z
			 M91.72,84.27c0,3.29-2.67,5.96-5.96,5.96H14.24c-3.29,0-5.96-2.67-5.96-5.96V36.59h83.45V84.27z M91.72,84.27"/>
		<path class="st2" d="M23.18,54.47h17.88c1.65,0,2.98-1.33,2.98-2.98s-1.33-2.98-2.98-2.98H23.18c-1.65,0-2.98,1.33-2.98,2.98
			S21.53,54.47,23.18,54.47L23.18,54.47z M23.18,72.35h17.88c1.65,0,2.98-1.33,2.98-2.98c0-1.65-1.33-2.98-2.98-2.98H23.18
			c-1.65,0-2.98,1.33-2.98,2.98C20.2,71.02,21.53,72.35,23.18,72.35L23.18,72.35z M58.94,54.47h17.88c1.65,0,2.98-1.33,2.98-2.98
			s-1.33-2.98-2.98-2.98H58.94c-1.65,0-2.98,1.33-2.98,2.98S57.3,54.47,58.94,54.47L58.94,54.47z M58.94,72.35h17.88
			c1.65,0,2.98-1.33,2.98-2.98c0-1.65-1.33-2.98-2.98-2.98H58.94c-1.65,0-2.98,1.33-2.98,2.98C55.96,71.02,57.3,72.35,58.94,72.35
			L58.94,72.35z M58.94,72.35"/>
	</g>
</g>
<g id="DEFAULT_x5F_AVATOR">
</g>
<g id="COLOR">
</g>
<g id="NAV_x5F_BAR">
	<g id="ICON_x5F_SETTING">
	</g>
	<g id="ICON_x5F_INFO">
	</g>
	<g id="ICON_x5F_KCB">
	</g>
</g>
<g id="HEADER_x5F_BAR">
	<g id="BUTTON">
	</g>
	<g id="TOP">
	</g>
</g>
</svg>
