<?xml version="1.0" encoding="utf-8"?>
<!-- Generator: Adobe Illustrator 26.0.1, SVG Export Plug-In . SVG Version: 6.00 Build 0)  -->
<svg version="1.1" xmlns="http://www.w3.org/2000/svg" xmlns:xlink="http://www.w3.org/1999/xlink" x="0px" y="0px"
	 viewBox="0 0 100 100" style="enable-background:new 0 0 100 100;" xml:space="preserve">
<style type="text/css">
	.st0{fill:#F4F0F1;}
	.st1{fill:#FFFFFF;}
	.st2{fill:#3EA3D8;}
	.st3{fill:#CCCCCC;}
	.st4{fill:none;stroke:#CCCCCC;stroke-linecap:square;stroke-miterlimit:10;}
	.st5{fill:none;stroke:#CCCCCC;stroke-miterlimit:10;}
	.st6{fill:none;stroke:#CCCCCC;stroke-miterlimit:10;stroke-dasharray:1.9084,1.9084;}
	.st7{fill:#1A1A1A;}
	.st8{fill:none;stroke:#1A1A1A;stroke-width:3;stroke-miterlimit:10;}
	.st9{fill:none;stroke:#1A1A1A;stroke-miterlimit:10;}
	.st10{fill:none;stroke:#E6E6E6;stroke-miterlimit:10;}
	.st11{fill:#666666;}
	.st12{fill:none;stroke:#B3B3B3;stroke-width:2;stroke-linecap:round;stroke-linejoin:round;stroke-miterlimit:10;}
	.st13{fill:#B3B3B3;}
	.st14{opacity:0.05;}
	.st15{clip-path:url(#SVGID_00000069362941054203318130000012565035162419057327_);}
	.st16{fill:none;stroke:#000000;stroke-width:2;stroke-miterlimit:10;}
	.st17{opacity:0.4;fill:#3EA3D8;}
	.st18{fill:none;stroke:#3EA3D8;stroke-miterlimit:10;}
	.st19{fill:none;stroke:#3EA3D8;stroke-width:11;stroke-linecap:round;stroke-linejoin:round;stroke-miterlimit:10;}
</style>
<g id="A1">
	<g id="NAV_x5F_BAR_00000129914889952932149030000011711506177042644156_">
	</g>
	<g id="HEADER_x5F_BAR_00000015351907221170818370000001589878730520391302_">
	</g>
	<g id="FUNC_x5F_LIST">
	</g>
	<g id="MAIN_x5F_FUNC">
	</g>
	<g id="USER_x5F_CARD">
		<g id="BG" class="st14">
		</g>
	</g>
</g>
<g id="ICON">
	<path class="st2" d="M94.28,26.98L76.8,12.11c-1.82-1.6-4.27-2.28-6.66-1.86c-2.39,0.42-4.45,1.9-5.62,4.03
		c-0.79,1.4-1.78,2.69-2.94,3.8c-6.44,5.96-16.38,5.96-22.82,0c-1.27-1.3-2.33-2.8-3.13-4.43c-1.1-2.15-3.12-3.68-5.49-4.14
		c-2.37-0.52-4.85,0.06-6.74,1.59L5.83,26.41c-1.64,1.41-2.63,3.43-2.74,5.59c-0.13,2.19,0.63,4.35,2.12,5.97
		c4.6,4.99,10,9.18,15.99,12.37c0.27,0.12,0.46,0.38,0.48,0.67v29.23c0,3.51,1.39,6.88,3.88,9.36c2.48,2.48,5.85,3.88,9.36,3.88
		h11.31c1.99,0,3.61-1.62,3.61-3.61c0-1.99-1.62-3.61-3.61-3.61H34.77c-3.32,0-6.02-2.69-6.02-6.02V51.06
		c-0.03-2.95-1.67-5.65-4.29-7.03c-5.23-2.83-9.95-6.5-13.96-10.88c-0.09-0.22-0.09-0.46,0-0.67c0.02-0.21,0.12-0.4,0.29-0.53
		l17.33-15.17c0.21-0.1,0.46-0.1,0.67,0c0.21,0.03,0.39,0.15,0.48,0.34c1.25,2.35,2.87,4.49,4.82,6.31
		c4.38,4.16,10.19,6.47,16.23,6.45c6.13,0,12.02-2.38,16.42-6.64c1.65-1.6,3.06-3.44,4.19-5.44c0.15-0.17,0.36-0.26,0.58-0.26
		c0.22,0,0.43,0.1,0.58,0.26l17.48,14.88c0.17,0.13,0.27,0.32,0.29,0.53c0.01,0.27-0.1,0.53-0.29,0.72
		c-3.92,4.1-8.45,7.56-13.43,10.26c-2.6,1.38-4.23,4.08-4.24,7.03v29.23c0,3.32-2.69,6.02-6.02,6.02c-1.99,0-3.61,1.62-3.61,3.61
		c0,1.99,1.62,3.61,3.61,3.61c3.51-0.04,6.86-1.47,9.32-3.98c2.46-2.51,3.81-5.89,3.78-9.41V51.01c0.03-0.3,0.21-0.55,0.48-0.67
		c5.65-3.07,10.78-7,15.22-11.65c1.55-1.63,2.37-3.82,2.26-6.07C96.85,30.46,95.9,28.42,94.28,26.98L94.28,26.98z M94.28,26.98"/>
</g>
<g id="DEFAULT_x5F_AVATOR">
</g>
<g id="COLOR">
</g>
<g id="NAV_x5F_BAR">
	<g id="ICON_x5F_SETTING">
	</g>
	<g id="ICON_x5F_INFO">
	</g>
	<g id="ICON_x5F_KCB">
	</g>
</g>
<g id="HEADER_x5F_BAR">
	<g id="BUTTON">
	</g>
	<g id="TOP">
	</g>
</g>
</svg>
