<?xml version="1.0" encoding="utf-8"?>
<!-- Generator: Adobe Illustrator 26.0.1, SVG Export Plug-In . SVG Version: 6.00 Build 0)  -->
<svg version="1.1" xmlns="http://www.w3.org/2000/svg" xmlns:xlink="http://www.w3.org/1999/xlink" x="0px" y="0px"
	 viewBox="0 0 100 100" style="enable-background:new 0 0 100 100;" xml:space="preserve">
<style type="text/css">
	.st0{fill:#F4F0F1;}
	.st1{fill:#FFFFFF;}
	.st2{fill:#3EA3D8;}
	.st3{fill:#CCCCCC;}
	.st4{fill:none;stroke:#CCCCCC;stroke-linecap:square;stroke-miterlimit:10;}
	.st5{fill:none;stroke:#CCCCCC;stroke-miterlimit:10;}
	.st6{fill:none;stroke:#CCCCCC;stroke-miterlimit:10;stroke-dasharray:1.9084,1.9084;}
	.st7{fill:#1A1A1A;}
	.st8{fill:none;stroke:#1A1A1A;stroke-width:3;stroke-miterlimit:10;}
	.st9{fill:none;stroke:#1A1A1A;stroke-miterlimit:10;}
	.st10{fill:none;stroke:#E6E6E6;stroke-miterlimit:10;}
	.st11{fill:#666666;}
	.st12{fill:none;stroke:#B3B3B3;stroke-width:2;stroke-linecap:round;stroke-linejoin:round;stroke-miterlimit:10;}
	.st13{fill:#B3B3B3;}
	.st14{opacity:0.05;}
	.st15{clip-path:url(#SVGID_00000093862449718304528650000001831433815926670741_);}
	.st16{fill:none;stroke:#000000;stroke-width:2;stroke-miterlimit:10;}
	.st17{opacity:0.4;fill:#3EA3D8;}
	.st18{fill:none;stroke:#3EA3D8;stroke-miterlimit:10;}
	.st19{fill:none;stroke:#3EA3D8;stroke-width:11;stroke-linecap:round;stroke-linejoin:round;stroke-miterlimit:10;}
</style>
<g id="A1">
	<g id="NAV_x5F_BAR_00000129914889952932149030000011711506177042644156_">
	</g>
	<g id="HEADER_x5F_BAR_00000015351907221170818370000001589878730520391302_">
	</g>
	<g id="FUNC_x5F_LIST">
	</g>
	<g id="MAIN_x5F_FUNC">
	</g>
	<g id="USER_x5F_CARD">
		<g id="BG" class="st14">
		</g>
	</g>
</g>
<g id="ICON">
	<g>
		<path class="st2" d="M88.72,18.15c0.45,0,0.82,0.37,0.82,0.82v54.55c0,0.45-0.37,0.82-0.82,0.82H47.58c-3.3,0-6.44,1.23-8.86,3.47
			l-8.73,8.06l-0.31-1.34c-1.36-6-6.59-10.19-12.75-10.19h-5.58c-0.45,0-0.82-0.37-0.82-0.82V18.97c0-0.45,0.37-0.82,0.82-0.82
			H88.72 M88.72,12.03H11.36c-3.84,0-6.94,3.1-6.94,6.94v54.55c0,3.84,3.1,6.94,6.94,6.94h5.58c3.25,0,6.05,2.25,6.77,5.41
			l0.66,2.96c0.57,2.52,2.78,4.03,5.06,4.03c1.23,0,2.46-0.43,3.48-1.38l9.95-9.19c1.29-1.18,2.96-1.84,4.71-1.84h41.15
			c3.84,0,6.94-3.1,6.94-6.94V18.97C95.66,15.14,92.55,12.03,88.72,12.03L88.72,12.03z M88.72,12.03"/>
		<path class="st2" d="M29.73,37.66c-3.25,0-5.87,2.63-5.87,5.87c0,3.24,2.63,5.87,5.87,5.87c3.24,0,5.87-2.63,5.87-5.87
			C35.6,40.29,32.97,37.66,29.73,37.66L29.73,37.66z M51.1,38.07c-3.25,0-5.87,2.63-5.87,5.87c0,3.24,2.63,5.87,5.87,5.87
			c3.24,0,5.88-2.62,5.88-5.87C56.98,40.69,54.35,38.07,51.1,38.07L51.1,38.07z M72.47,38.07c-3.25,0-5.87,2.63-5.87,5.87
			c0,3.24,2.63,5.87,5.87,5.87c3.25,0,5.87-2.63,5.87-5.87C78.34,40.7,75.72,38.07,72.47,38.07L72.47,38.07z M72.47,38.07"/>
	</g>
</g>
<g id="DEFAULT_x5F_AVATOR">
</g>
<g id="COLOR">
</g>
<g id="NAV_x5F_BAR">
	<g id="ICON_x5F_SETTING">
	</g>
	<g id="ICON_x5F_INFO">
	</g>
	<g id="ICON_x5F_KCB">
	</g>
</g>
<g id="HEADER_x5F_BAR">
	<g id="BUTTON">
	</g>
	<g id="TOP">
	</g>
</g>
</svg>
