<?xml version="1.0" encoding="utf-8"?>
<!-- Generator: Adobe Illustrator 26.0.1, SVG Export Plug-In . SVG Version: 6.00 Build 0)  -->
<svg version="1.1" xmlns="http://www.w3.org/2000/svg" xmlns:xlink="http://www.w3.org/1999/xlink" x="0px" y="0px"
	 viewBox="0 0 100 100" style="enable-background:new 0 0 100 100;" xml:space="preserve">
<style type="text/css">
	.st0{fill:#F4F0F1;}
	.st1{fill:#FFFFFF;}
	.st2{fill:none;stroke:#CCCCCC;stroke-miterlimit:10;}
	.st3{fill:#1A1A1A;}
	.st4{fill:none;stroke:#1A1A1A;stroke-width:3;stroke-miterlimit:10;}
	.st5{fill:none;stroke:#1A1A1A;stroke-miterlimit:10;}
	.st6{fill:#3EA3D8;}
	.st7{display:none;}
	.st8{display:inline;}
	.st9{fill:#808080;}
	.st10{display:inline;fill:#808080;}
	.st11{fill:none;stroke:#808080;stroke-miterlimit:10;}
	.st12{fill:#7AC943;}
	.st13{fill:none;stroke:#E6E6E6;stroke-width:3;stroke-miterlimit:10;}
	.st14{fill:#FFFFFF;stroke:#E6E6E6;stroke-width:3;stroke-miterlimit:10;}
	.st15{fill:none;stroke:#3EA3D8;stroke-miterlimit:10;}
	.st16{fill:#CCCCCC;}
	.st17{fill:none;stroke:#CCCCCC;stroke-linecap:square;stroke-miterlimit:10;}
	.st18{fill:none;stroke:#CCCCCC;stroke-miterlimit:10;stroke-dasharray:1.9084,1.9084;}
	.st19{fill:none;stroke:#E6E6E6;stroke-miterlimit:10;}
	.st20{fill:#666666;}
	.st21{fill:none;stroke:#B3B3B3;stroke-width:2;stroke-linecap:round;stroke-linejoin:round;stroke-miterlimit:10;}
	.st22{fill:#B3B3B3;}
	.st23{opacity:0.05;}
	.st24{clip-path:url(#SVGID_00000096743565441905941170000016958695224966735273_);}
	.st25{fill:none;stroke:#000000;stroke-width:2;stroke-miterlimit:10;}
	.st26{opacity:0.4;fill:#3EA3D8;}
	.st27{fill:none;stroke:#3EA3D8;stroke-width:11;stroke-linecap:round;stroke-linejoin:round;stroke-miterlimit:10;}
</style>
<g id="A3">
	<g id="HEADER_x5F_BAR_00000036974300579741410940000000488572858971942531_">
	</g>
</g>
<g id="A2">
	<g id="HEADER_x5F_BAR_00000019648451390881128220000012673596900810320021_">
	</g>
	<g id="BUTTON_00000117651906535404305420000016044620869483747487_">
	</g>
	<g id="USER_x5F_FORM">
	</g>
	<g id="INTRO">
	</g>
	<g id="DLPU_x5F_LOGO">
	</g>
</g>
<g id="A1">
	<g id="NAV_x5F_BAR_00000129914889952932149030000011711506177042644156_">
	</g>
	<g id="HEADER_x5F_BAR_00000015351907221170818370000001589878730520391302_">
	</g>
	<g id="FUNC_x5F_LIST">
	</g>
	<g id="MAIN_x5F_FUNC">
	</g>
	<g id="USER_x5F_CARD">
		<g id="BG" class="st23">
		</g>
	</g>
</g>
<g id="ICON">
	<path class="st6" d="M99.46,50.54c-0.71-1.43-18.11-35.5-49.55-35.5c-2.62,0-5.24,0.24-7.86,0.71c-1.91,0.48-3.34,2.14-2.86,4.05
		c0.48,1.91,2.14,3.34,4.05,2.86c2.14-0.48,4.29-0.48,6.43-0.48c23.35,0,38.59,23.35,42.41,29.78c-1.19,2.14-3.57,5.96-7.15,10.24
		c-1.19,1.43-0.95,3.81,0.48,5c0.71,0.48,1.43,0.71,2.38,0.71c0.95,0,2.14-0.48,2.86-1.19c5.72-6.91,8.81-12.86,8.81-13.1
		C100.18,52.68,100.18,51.49,99.46,50.54z M16.8,9.56c-1.43-1.43-3.57-1.43-5,0s-1.43,3.57,0,5l10.24,10.24
		C8.22,35.05,0.83,49.58,0.36,50.3c-0.48,0.95-0.48,2.14,0,3.34c0.71,1.43,18.11,35.26,49.55,35.26c9.29,0,18.34-3.1,26.92-9.05
		l10.72,10.72c0.71,0.71,1.67,0.95,2.62,0.95c0.95,0,1.91-0.24,2.62-0.95c1.43-1.43,1.43-3.57,0-5L16.8,9.56z M43.95,46.96
		l11.67,11.67c-1.43,1.43-3.57,2.38-5.72,2.38c-4.53,0-8.34-3.81-8.34-8.34C41.57,50.54,42.53,48.39,43.95,46.96z M49.91,81.75
		c-23.35,0-38.59-23.35-42.41-29.78c2.38-4.05,9.05-14.53,19.54-21.92l11.67,11.67c-2.86,2.86-4.29,6.67-4.29,10.72
		c0,8.58,6.91,15.49,15.49,15.49c4.05,0,7.86-1.67,10.72-4.29L71.59,74.6C64.68,79.36,57.3,81.75,49.91,81.75z"/>
</g>
<g id="DEFAULT_x5F_AVATOR">
</g>
<g id="COLOR">
</g>
<g id="NAV_x5F_BAR">
	<g id="ICON_x5F_SETTING">
	</g>
	<g id="ICON_x5F_INFO">
	</g>
	<g id="ICON_x5F_KCB">
	</g>
</g>
<g id="HEADER_x5F_BAR">
	<g id="BUTTON">
	</g>
	<g id="TOP">
	</g>
</g>
</svg>
