<?xml version="1.0" encoding="utf-8"?>
<!-- Generator: Adobe Illustrator 26.0.1, SVG Export Plug-In . SVG Version: 6.00 Build 0)  -->
<svg version="1.1" xmlns="http://www.w3.org/2000/svg" xmlns:xlink="http://www.w3.org/1999/xlink" x="0px" y="0px"
	 viewBox="0 0 100 100" style="enable-background:new 0 0 100 100;" xml:space="preserve">
<style type="text/css">
	.st0{fill:#F4F0F1;}
	.st1{fill:#FFFFFF;}
	.st2{fill:#3EA3D8;}
	.st3{fill:#CCCCCC;}
	.st4{fill:none;stroke:#CCCCCC;stroke-linecap:square;stroke-miterlimit:10;}
	.st5{fill:none;stroke:#CCCCCC;stroke-miterlimit:10;}
	.st6{fill:none;stroke:#CCCCCC;stroke-miterlimit:10;stroke-dasharray:1.9084,1.9084;}
	.st7{fill:#1A1A1A;}
	.st8{fill:none;stroke:#1A1A1A;stroke-width:3;stroke-miterlimit:10;}
	.st9{fill:none;stroke:#1A1A1A;stroke-miterlimit:10;}
	.st10{fill:none;stroke:#E6E6E6;stroke-miterlimit:10;}
	.st11{fill:#666666;}
	.st12{fill:none;stroke:#B3B3B3;stroke-width:2;stroke-linecap:round;stroke-linejoin:round;stroke-miterlimit:10;}
	.st13{fill:#B3B3B3;}
	.st14{opacity:0.05;}
	.st15{clip-path:url(#SVGID_00000083775721639409305130000017638257817945677498_);}
	.st16{fill:none;stroke:#000000;stroke-width:2;stroke-miterlimit:10;}
	.st17{opacity:0.4;fill:#3EA3D8;}
	.st18{fill:none;stroke:#3EA3D8;stroke-miterlimit:10;}
	.st19{fill:none;stroke:#3EA3D8;stroke-width:11;stroke-linecap:round;stroke-linejoin:round;stroke-miterlimit:10;}
</style>
<g id="A1">
	<g id="NAV_x5F_BAR_00000129914889952932149030000011711506177042644156_">
	</g>
	<g id="HEADER_x5F_BAR_00000015351907221170818370000001589878730520391302_">
	</g>
	<g id="FUNC_x5F_LIST">
	</g>
	<g id="MAIN_x5F_FUNC">
	</g>
	<g id="USER_x5F_CARD">
		<g id="BG" class="st14">
		</g>
	</g>
</g>
<g id="ICON">
	<g>
		<path class="st2" d="M94.18,41.64l-5.54-1.68c-0.91-3.53-2.32-6.91-4.18-10.05l2.67-5.09c1.11-2.07,0.73-4.63-0.93-6.29
			l-4.64-4.74c-1.64-1.69-4.2-2.1-6.29-1.01l-5.09,2.66c-3.14-1.8-6.52-3.14-10.05-3.97L58.45,5.9c-0.68-2.24-2.75-3.78-5.09-3.78
			h-6.72c-2.34,0-4.41,1.54-5.09,3.78l-1.68,5.54c-3.53,0.9-6.92,2.31-10.05,4.18l-5.09-2.85c-2.07-1.12-4.62-0.75-6.29,0.91
			l-4.74,4.85c-1.69,1.64-2.1,4.2-1.01,6.29l2.66,5.09c-1.79,3.15-3.12,6.53-3.97,10.05l-5.57,1.68c-2.24,0.68-3.78,2.75-3.78,5.09
			v6.72c0,2.34,1.54,4.41,3.78,5.09l5.54,1.68c0.91,3.53,2.32,6.91,4.18,10.05l-2.85,5.09c-1.11,2.07-0.73,4.63,0.93,6.29l4.74,4.74
			c1.67,1.65,4.22,2.02,6.29,0.91l5.09-2.66c3.13,1.86,6.52,3.25,10.05,4.13l1.68,5.57c0.71,2.25,2.81,3.77,5.17,3.73h6.72
			c2.34,0,4.41-1.54,5.09-3.78l1.68-5.54c3.53-0.9,6.92-2.31,10.05-4.18l5.09,2.67c2.07,1.12,4.62,0.75,6.29-0.91l4.74-4.74
			c1.65-1.63,2.06-4.14,1.01-6.21l-2.66-5.09c1.84-3.14,3.23-6.52,4.13-10.05l5.57-1.68c2.18-0.74,3.64-2.79,3.62-5.09v-6.72
			C97.96,44.38,96.43,42.31,94.18,41.64L94.18,41.64z M87.09,55.09c-1.77,0.54-3.13,1.97-3.6,3.76c-0.8,3.05-2.01,5.99-3.6,8.71
			c-0.95,1.65-0.95,3.68,0,5.33l2.66,5.09l-4.77,4.61l-5.12-2.66c-1.65-0.95-3.68-0.95-5.33,0c-2.72,1.58-5.64,2.79-8.69,3.6
			c-1.8,0.46-3.24,1.82-3.78,3.6l-1.52,5.6h-6.69l-1.68-5.54c-0.55-1.78-1.98-3.14-3.78-3.6c-3.04-0.8-5.97-2.01-8.69-3.6
			c-0.81-0.48-1.73-0.74-2.66-0.75c-0.86,0-1.71,0.21-2.48,0.61l-5.09,2.66l-4.8-4.64l2.67-5.12c0.91-1.67,0.86-3.7-0.13-5.33
			c-1.59-2.73-2.8-5.66-3.6-8.71c-0.47-1.79-1.83-3.21-3.6-3.76l-5.46-1.52v-6.69l5.54-1.68c1.77-0.54,3.13-1.97,3.6-3.76
			c0.8-3.06,2.01-5.99,3.6-8.71c0.94-1.59,0.99-3.56,0.13-5.2l-2.67-5.09l4.64-4.74l5.12,2.67c1.64,0.86,3.6,0.81,5.2-0.13
			c2.72-1.56,5.65-2.74,8.69-3.52c1.8-0.46,3.24-1.82,3.78-3.6l1.65-5.54h6.69l1.68,5.54c0.55,1.78,1.98,3.14,3.78,3.6
			c3.04,0.8,5.97,2.01,8.69,3.6c1.63,0.99,3.66,1.04,5.33,0.13l5.09-2.67l4.74,4.74l-2.66,5.12c-0.9,1.62-0.9,3.58,0,5.2
			c1.59,2.73,2.8,5.66,3.6,8.71c0.47,1.79,1.83,3.21,3.6,3.76l5.54,1.65v6.69L87.09,55.09z M87.09,55.09"/>
		<path class="st2" d="M50,28.76c-11.77,0-21.32,9.54-21.32,21.32c0,11.77,9.54,21.32,21.32,21.32c11.77,0,21.32-9.55,21.32-21.32
			c0-5.65-2.25-11.08-6.24-15.07C61.08,31.01,55.65,28.76,50,28.76L50,28.76z M50,66.07c-8.83,0-15.99-7.16-15.99-15.99
			c0-8.83,7.16-15.99,15.99-15.99s15.99,7.16,15.99,15.99C65.99,58.91,58.83,66.07,50,66.07L50,66.07z M50,66.07"/>
	</g>
</g>
<g id="DEFAULT_x5F_AVATOR">
</g>
<g id="COLOR">
</g>
<g id="NAV_x5F_BAR">
	<g id="ICON_x5F_SETTING">
	</g>
	<g id="ICON_x5F_INFO">
	</g>
	<g id="ICON_x5F_KCB">
	</g>
</g>
<g id="HEADER_x5F_BAR">
	<g id="BUTTON">
	</g>
	<g id="TOP">
	</g>
</g>
</svg>
