<?xml version="1.0" encoding="utf-8"?>
<!-- Generator: Adobe Illustrator 22.0.0, SVG Export Plug-In . SVG Version: 6.00 Build 0)  -->
<svg version="1.1" id="图层_1" xmlns="http://www.w3.org/2000/svg" xmlns:xlink="http://www.w3.org/1999/xlink" x="0px" y="0px"
	 viewBox="0 0 1024 1024" style="enable-background:new 0 0 1024 1024;" xml:space="preserve">
<style type="text/css">
	.st0{fill:#3EA3D8;}
</style>
<path class="st0" d="M839.8,71.8H715.5c-18.5-34.5-55.1-58.2-96.9-58.2H414.1c-41.9,0-78.3,23.6-96.9,58.2H192.9
	C131,71.8,80.8,122.2,80.8,184v711.4c0,61.9,50.2,112.1,112.1,112.1h646.9c61.9,0,112.1-50.2,112.1-112.1V184
	C951.8,122.1,901.6,71.8,839.8,71.8L839.8,71.8z M414.1,72.2h204.5c28.3,0,51.4,23.1,51.4,51.4S646.9,175,618.6,175H414.1
	c-28.3,0-51.4-23.1-51.4-51.4C362.6,95.3,385.8,72.2,414.1,72.2L414.1,72.2z M893.4,895.4c0,29.6-24,53.6-53.6,53.6H192.9
	c-29.6,0-53.6-24-53.6-53.6V184c0-29.6,24-53.6,53.6-53.6h111.6c3.5,57.5,51.4,103.1,109.6,103.1h204.5
	c58.3,0,106.1-45.6,109.6-103.1h111.6c29.6,0,53.6,24,53.6,53.6L893.4,895.4L893.4,895.4z"/>
<path class="st0" d="M314.6,730.6H459v-350c0-15.8,9.9-24.4,29.7-25.7c19.8,1.3,30.3,9.9,31.6,25.7v96.9h172
	c17.1,1.3,26.4,11.2,27.7,29.7c-1.3,19.8-10.6,29.7-27.7,29.7h-172v193.8H722c14.5,1.3,22.4,9.9,23.7,25.7
	c-1.3,18.4-9.2,28.3-23.7,29.7H314.6c-15.8-1.3-24.4-11.2-25.7-29.7C290.2,740.4,298.8,731.9,314.6,730.6L314.6,730.6z"/>
</svg>
