<?xml version="1.0" encoding="utf-8"?>
<!-- Generator: Adobe Illustrator 22.0.0, SVG Export Plug-In . SVG Version: 6.00 Build 0)  -->
<svg version="1.1" id="图层_1" xmlns="http://www.w3.org/2000/svg" xmlns:xlink="http://www.w3.org/1999/xlink" x="0px" y="0px"
	 viewBox="0 0 1024 1024" style="enable-background:new 0 0 1024 1024;" xml:space="preserve">
<style type="text/css">
	.st0{fill:#3EA3D8;}
</style>
<path class="st0" d="M838.4,71.7H713.8c-18.5-34.6-55.2-58.3-97.1-58.3H412c-42,0-78.4,23.7-97,58.3H190.4
	c-62,0-112.2,50.5-112.2,112.3v712.6c0,62,50.3,112.2,112.2,112.2h648c62,0,112.2-50.3,112.2-112.2V184.1
	C950.6,122.1,900.3,71.7,838.4,71.7z M412,72.1h204.8c28.4,0,51.4,23.1,51.4,51.4c0,28.4-23.1,51.5-51.4,51.5H412
	c-28.4,0-51.4-23.1-51.4-51.5C360.4,95.2,383.6,72.1,412,72.1z M892,896.6c0,29.6-24.1,53.7-53.7,53.7h-648
	c-29.6,0-53.7-24.1-53.7-53.7V184.1c0-29.6,24.1-53.7,53.7-53.7h111.8c3.5,57.6,51.4,103.3,109.8,103.3h204.8
	c58.4,0,106.3-45.7,109.8-103.3h111.8c29.6,0,53.7,24.1,53.7,53.7C892,184.1,892,896.6,892,896.6z"/>
<path class="st0" d="M308.4,358h411.9c15.8,1.3,25.1,11.2,27.7,29.7c-1.3,18.5-9.9,27.7-25.7,27.7H528.2V461
	c52.8,33,103.6,72,152.5,116.8c18.5,19.8,21.8,38.3,9.9,55.4c-13.2,11.9-30.4,8.6-51.5-9.9c-42.3-39.6-79.2-71.3-110.9-95.1V764
	c-1.3,14.5-11.2,22.4-29.7,23.8c-18.5-1.3-27.7-9.3-27.7-23.8V415.4H310.4c-15.8,0-24.4-9.2-25.7-27.7
	C284.7,369.2,292.6,359.3,308.4,358z"/>
</svg>
