<?xml version="1.0" encoding="utf-8"?>
<!-- Generator: Adobe Illustrator 22.0.0, SVG Export Plug-In . SVG Version: 6.00 Build 0)  -->
<svg version="1.1" id="图层_1" xmlns="http://www.w3.org/2000/svg" xmlns:xlink="http://www.w3.org/1999/xlink" x="0px" y="0px"
	 viewBox="0 0 1024 1024" style="enable-background:new 0 0 1024 1024;" xml:space="preserve">
<style type="text/css">
	.st0{fill:#3EA3D8;}
</style>
<path class="st0" d="M352.1,384V217.9c0-19.8-23.9-29.7-38-15.7L4.6,511.7v0.1l309.6,309.6c14,14,38,4.1,38-15.7V639.5
	c0,0,0-0.1,0.1-0.1l260.9,49.2c0,0,0,0,0,0.1v80.1c0,16.8,13.7,30.5,30.5,30.5s30.5-13.7,30.5-30.5V254.9
	c0-16.8-13.7-30.5-30.5-30.5s-30.5,13.7-30.5,30.5v79.9c0,0,0,0,0,0.1L352.1,384L352.1,384z M291.1,712.3L90.7,511.8v-0.1
	l200.5-200.5h0.1v145.4c0,0,0,0.1,0.1,0.1L613,396.6c0,0,0.1,0,0.1,0.1v230.1c0,0,0,0.1-0.1,0.1l-321.7-60c0,0-0.1,0-0.1,0.1
	L291.1,712.3C291.2,712.3,291.2,712.3,291.1,712.3z M796,696.8V327.3c0-16.6-13-30.7-29.6-31.2c-17.2-0.5-31.3,13.4-31.3,30.5
	l0.1,370.3c0,16.8,13.7,30.5,30.5,30.5C782.3,727.3,796,713.6,796,696.8L796,696.8z M917.7,603.6V420c0-16.8-13.7-30.5-30.5-30.5
	s-30.5,13.7-30.5,30.5l0.1,183.7c0,16.8,13.7,30.5,30.5,30.5C904.1,634.1,917.7,620.4,917.7,603.6L917.7,603.6z"/>
</svg>
