<?xml version="1.0" encoding="utf-8"?>
<!-- Generator: Adobe Illustrator 22.0.0, SVG Export Plug-In . SVG Version: 6.00 Build 0)  -->
<svg version="1.1" id="D" xmlns="http://www.w3.org/2000/svg" xmlns:xlink="http://www.w3.org/1999/xlink" x="0px" y="0px"
	 viewBox="0 0 1024 1024" style="enable-background:new 0 0 1024 1024;" xml:space="preserve">
<style type="text/css">
	.st0{fill:#3EA3D8;}
</style>
<path class="st0" d="M474.1,995.9l5.4,4.9c33.6,27.3,86.1,4,86.1-41.4V729.7h371.2c29.3,0,53-23.7,53-53V346.7l-0.5-7.1
	c-3.6-26.3-26-45.9-52.5-45.9l-371.2,0.1V64c0-21.7-13.2-41.2-33.4-49.2c-20.2-8-43.2-3-58.1,12.8L49.9,475.3
	c-19.3,20.4-19.3,52.4,0,72.9L474.1,995.9z M161.4,511.7l298.1-314.7v149.7l0.5,7.2c3.6,26.3,26,45.8,52.5,45.8l371.1,0.1v223.8
	H512.5l-7.2,0.5c-26.3,3.6-45.8,26-45.8,52.5v149.8L161.4,511.7z M161.4,511.7"/>
</svg>
